<?xml version="1.0" encoding="iso-8859-1"?>
<!-- Uploaded to: SVG Repo, www.svgrepo.com, Generator: SVG Repo Mixer Tools -->
<svg fill="#000000" height="800px" width="800px" version="1.1" id="Capa_1" xmlns="http://www.w3.org/2000/svg" xmlns:xlink="http://www.w3.org/1999/xlink" 
	 viewBox="0 0 29.294 29.294" xml:space="preserve">
<g>
	<path d="M1.667,13.744h12.072V8.393c0-2.273,0.805-4.361,2.141-5.887C17.212,0.979,19.115,0,21.212,0
		c2.096,0,4.002,0.979,5.332,2.506c1.334,1.525,2.141,3.613,2.141,5.887v7.094h-3.898V8.393c0-1.215-0.428-2.281-1.092-3.037
		c-0.666-0.758-1.529-1.189-2.482-1.189c-0.951,0-1.812,0.432-2.48,1.189c-0.666,0.756-1.094,1.822-1.094,3.037v5.352h1.672
		c0.584,0,1.061,0.51,1.061,1.137v13.281c0,0.627-0.477,1.131-1.061,1.131H1.667c-0.586-0.001-1.059-0.505-1.059-1.132V14.881
		C0.608,14.254,1.081,13.744,1.667,13.744z"/>
	<g>
	</g>
	<g>
	</g>
	<g>
	</g>
	<g>
	</g>
	<g>
	</g>
	<g>
	</g>
	<g>
	</g>
	<g>
	</g>
	<g>
	</g>
	<g>
	</g>
	<g>
	</g>
	<g>
	</g>
	<g>
	</g>
	<g>
	</g>
	<g>
	</g>
</g>
</svg>